<mxfile host="Electron" modified="2021-06-28T13:35:08.328Z" agent="5.0 (Macintosh; Intel Mac OS X 11_2_3) AppleWebKit/537.36 (KHTML, like Gecko) draw.io/14.6.13 Chrome/89.0.4389.128 Electron/12.0.7 Safari/537.36" etag="fBLURzhIVjYGFJfPQ0rv" compressed="false" version="14.6.13" type="device">
  <diagram id="1Kw5v_u80LVRKNtpREc1" name="Page-1">
    <mxGraphModel dx="1106" dy="997" grid="1" gridSize="10" guides="1" tooltips="1" connect="1" arrows="1" fold="1" page="1" pageScale="1" pageWidth="827" pageHeight="1169" math="0" shadow="0">
      <root>
        <mxCell id="0" />
        <mxCell id="1" parent="0" />
        <mxCell id="nSJpXCImBmSawhCvZI22-3" value="This is a container" style="swimlane;" parent="1" vertex="1">
          <mxGeometry x="140" y="140" width="200" height="200" as="geometry">
            <mxRectangle x="120" y="200" width="130" height="23" as="alternateBounds" />
          </mxGeometry>
        </mxCell>
        <mxCell id="nSJpXCImBmSawhCvZI22-2" value="class A" style="rounded=0;whiteSpace=wrap;html=1;" parent="nSJpXCImBmSawhCvZI22-3" vertex="1">
          <mxGeometry x="50" y="130" width="120" height="60" as="geometry" />
        </mxCell>
        <object label="" context="security" id="nSJpXCImBmSawhCvZI22-4">
          <mxCell style="swimlane;startSize=0;" parent="1" vertex="1">
            <mxGeometry x="500" y="150" width="200" height="200" as="geometry" />
          </mxCell>
        </object>
        <mxCell id="nSJpXCImBmSawhCvZI22-5" value="class B" style="rounded=0;whiteSpace=wrap;html=1;" parent="nSJpXCImBmSawhCvZI22-4" vertex="1">
          <mxGeometry x="30" y="90" width="120" height="60" as="geometry" />
        </mxCell>
        <mxCell id="nSJpXCImBmSawhCvZI22-8" value="thiss is a test" style="text;html=1;strokeColor=none;fillColor=none;align=center;verticalAlign=middle;whiteSpace=wrap;rounded=0;" vertex="1" parent="nSJpXCImBmSawhCvZI22-4">
          <mxGeometry x="60" y="40" width="100" height="20" as="geometry" />
        </mxCell>
        <mxCell id="nSJpXCImBmSawhCvZI22-6" value="" style="endArrow=classic;html=1;exitX=1;exitY=0.5;exitDx=0;exitDy=0;entryX=0;entryY=0.5;entryDx=0;entryDy=0;" parent="1" source="nSJpXCImBmSawhCvZI22-3" target="nSJpXCImBmSawhCvZI22-4" edge="1">
          <mxGeometry width="50" height="50" relative="1" as="geometry">
            <mxPoint x="370" y="550" as="sourcePoint" />
            <mxPoint x="420" y="500" as="targetPoint" />
          </mxGeometry>
        </mxCell>
        <mxCell id="nSJpXCImBmSawhCvZI22-9" value="uses" style="edgeLabel;html=1;align=center;verticalAlign=middle;resizable=0;points=[];" vertex="1" connectable="0" parent="nSJpXCImBmSawhCvZI22-6">
          <mxGeometry x="-0.2274" y="1" relative="1" as="geometry">
            <mxPoint as="offset" />
          </mxGeometry>
        </mxCell>
        <mxCell id="nSJpXCImBmSawhCvZI22-7" value="" style="endArrow=classic;html=1;exitX=0;exitY=0.5;exitDx=0;exitDy=0;entryX=1;entryY=0.5;entryDx=0;entryDy=0;startArrow=none;startFill=0;" parent="1" source="nSJpXCImBmSawhCvZI22-5" target="nSJpXCImBmSawhCvZI22-2" edge="1">
          <mxGeometry width="50" height="50" relative="1" as="geometry">
            <mxPoint x="370" y="580" as="sourcePoint" />
            <mxPoint x="420" y="530" as="targetPoint" />
          </mxGeometry>
        </mxCell>
        <mxCell id="nSJpXCImBmSawhCvZI22-10" value="function_call()" style="edgeLabel;html=1;align=center;verticalAlign=middle;resizable=0;points=[];" vertex="1" connectable="0" parent="nSJpXCImBmSawhCvZI22-7">
          <mxGeometry relative="1" as="geometry">
            <mxPoint as="offset" />
          </mxGeometry>
        </mxCell>
        <object label="UseService" type="class" id="nSJpXCImBmSawhCvZI22-11">
          <mxCell style="swimlane;fontStyle=0;childLayout=stackLayout;horizontal=1;startSize=26;horizontalStack=0;resizeParent=1;resizeParentMax=0;resizeLast=0;collapsible=1;marginBottom=0;type=class" vertex="1" parent="1">
            <mxGeometry x="230" y="440" width="140" height="104" as="geometry" />
          </mxCell>
        </object>
        <mxCell id="nSJpXCImBmSawhCvZI22-12" value="name: String" style="text;strokeColor=none;fillColor=none;align=left;verticalAlign=top;spacingLeft=4;spacingRight=4;overflow=hidden;rotatable=0;points=[[0,0.5],[1,0.5]];portConstraint=eastwest;" vertex="1" parent="nSJpXCImBmSawhCvZI22-11">
          <mxGeometry y="26" width="140" height="26" as="geometry" />
        </mxCell>
        <mxCell id="nSJpXCImBmSawhCvZI22-13" value="toString()" style="text;strokeColor=none;fillColor=none;align=left;verticalAlign=top;spacingLeft=4;spacingRight=4;overflow=hidden;rotatable=0;points=[[0,0.5],[1,0.5]];portConstraint=eastwest;" vertex="1" parent="nSJpXCImBmSawhCvZI22-11">
          <mxGeometry y="52" width="140" height="26" as="geometry" />
        </mxCell>
        <mxCell id="nSJpXCImBmSawhCvZI22-14" value="equals()" style="text;strokeColor=none;fillColor=none;align=left;verticalAlign=top;spacingLeft=4;spacingRight=4;overflow=hidden;rotatable=0;points=[[0,0.5],[1,0.5]];portConstraint=eastwest;" vertex="1" parent="nSJpXCImBmSawhCvZI22-11">
          <mxGeometry y="78" width="140" height="26" as="geometry" />
        </mxCell>
        <mxCell id="nSJpXCImBmSawhCvZI22-15" value="" style="endArrow=classic;html=1;entryX=0.5;entryY=1;entryDx=0;entryDy=0;exitX=1;exitY=0.5;exitDx=0;exitDy=0;" edge="1" parent="1" source="nSJpXCImBmSawhCvZI22-13" target="nSJpXCImBmSawhCvZI22-5">
          <mxGeometry width="50" height="50" relative="1" as="geometry">
            <mxPoint x="400" y="580" as="sourcePoint" />
            <mxPoint x="450" y="530" as="targetPoint" />
          </mxGeometry>
        </mxCell>
        <mxCell id="nSJpXCImBmSawhCvZI22-16" value="calls" style="edgeLabel;html=1;align=center;verticalAlign=middle;resizable=0;points=[];" vertex="1" connectable="0" parent="nSJpXCImBmSawhCvZI22-15">
          <mxGeometry x="-0.1718" relative="1" as="geometry">
            <mxPoint as="offset" />
          </mxGeometry>
        </mxCell>
      </root>
    </mxGraphModel>
  </diagram>
</mxfile>
